<?xml version="1.0" standalone="no"?>
<!DOCTYPE svg PUBLIC "-//W3C//DTD SVG 20010904//EN"
 "http://www.w3.org/TR/2001/REC-SVG-20010904/DTD/svg10.dtd">
<svg version="1.0" xmlns="http://www.w3.org/2000/svg"
 width="200.000000pt" height="200.000000pt" viewBox="0 0 200.000000 200.000000"
 preserveAspectRatio="xMidYMid meet">
<metadata>
Created by potrace 1.11, written by Peter Selinger 2001-2013
</metadata>
<g transform="translate(0.000000,200.000000) scale(0.100000,-0.100000)"
fill="#000000" stroke="none">
<path d="M873 1656 c-101 -45 -187 -213 -153 -300 8 -21 3 -32 -29 -71 -85
-103 -123 -226 -117 -385 3 -98 20 -156 60 -215 26 -38 67 -75 83 -75 26 0 39
-40 41 -118 1 -71 -2 -81 -24 -105 -14 -15 -31 -28 -39 -28 -17 -2 -34 -5 -37
-8 -2 -2 -14 -4 -28 -7 -48 -9 -130 -58 -184 -110 -53 -52 -111 -151 -121
-207 l-5 -27 801 0 802 0 -6 77 c-3 43 -8 89 -11 103 -3 14 -8 39 -11 55 -10
50 -38 109 -65 133 -47 44 -88 55 -202 56 -101 1 -108 2 -135 27 -15 15 -37
31 -48 37 -39 19 -141 35 -232 34 -78 0 -92 2 -96 16 -8 37 14 67 66 95 116
60 194 156 206 252 10 82 5 261 -9 310 -44 160 -93 211 -234 245 l-68 16 -4
57 c-5 97 -46 147 -127 154 -23 1 -56 -3 -74 -11z"/>
</g>
</svg>
